<?xml version="1.0" encoding="utf-8"?>
<!-- Generator: Adobe Illustrator 27.7.0, SVG Export Plug-In . SVG Version: 6.00 Build 0)  -->
<svg version="1.1"
	 id="svg2" xmlns:dc="http://purl.org/dc/elements/1.1/" xmlns:ns1="http://sozi.baierouge.fr" xmlns:rdf="http://www.w3.org/1999/02/22-rdf-syntax-ns#" xmlns:cc="http://creativecommons.org/ns#" xmlns:inkscape="http://www.inkscape.org/namespaces/inkscape" xmlns:sodipodi="http://sodipodi.sourceforge.net/DTD/sodipodi-0.dtd" xmlns:svg="http://www.w3.org/2000/svg" sodipodi:docname="arrow.svg"
	 xmlns="http://www.w3.org/2000/svg" xmlns:xlink="http://www.w3.org/1999/xlink" x="0px" y="0px" viewBox="0 0 492 779"
	 style="enable-background:new 0 0 492 779;" xml:space="preserve">
<style type="text/css">
	.st0{fill:#FFFFFF;}
</style>
<sodipodi:namedview  bordercolor="#666666" borderopacity="1.0" fit-margin-bottom="0" fit-margin-left="0" fit-margin-right="0" fit-margin-top="0" height="0px" id="base" inkscape:bbox-nodes="true" inkscape:bbox-paths="true" inkscape:current-layer="layer2" inkscape:cx="286.49208" inkscape:cy="272.60644" inkscape:document-units="px" inkscape:object-paths="true" inkscape:pageopacity="0.0" inkscape:pageshadow="2" inkscape:showpageshadow="false" inkscape:snap-bbox="true" inkscape:window-height="744" inkscape:window-maximized="1" inkscape:window-width="1300" inkscape:window-x="66" inkscape:window-y="24" inkscape:zoom="0.35355339" pagecolor="#ffffff" showborder="false" showgrid="false" width="0px">
	</sodipodi:namedview>
<g id="layer2" transform="translate(-555.19 -353.77)" inkscape:groupmode="layer" inkscape:label="Layer">
	<g id="g58">
		<rect id="rect3134" x="965.2" y="1050.8" width="41" height="41"/>
		<rect id="rect3136" x="924.2" y="1009.8" width="41" height="41"/>
		<rect id="rect3138" x="883.2" y="968.8" width="41" height="41"/>
		<rect id="rect3140" x="842.2" y="927.8" width="41" height="41"/>
		<rect id="rect3142" x="801.2" y="886.8" width="41" height="41"/>
		<rect id="rect3144" x="760.2" y="845.8" width="41" height="41"/>
		<rect id="rect3146" x="719.2" y="804.8" width="41" height="41"/>
		<rect id="rect3148" x="678.2" y="763.8" width="41" height="41"/>
		<rect id="rect3150" x="637.2" y="722.8" width="41" height="41"/>
		<rect id="rect3152" x="596.2" y="681.8" width="41" height="41"/>
		<rect id="rect3154" x="555.2" y="640.8" width="41" height="41"/>
		<rect id="rect3156" x="555.2" y="599.8" width="41" height="41"/>
		<rect id="rect3158" x="596.2" y="599.8" width="41" height="41"/>
		<rect id="rect3160" x="637.2" y="599.8" width="41" height="41"/>
		<rect id="rect3162" x="678.2" y="599.8" width="41" height="41"/>
		<rect id="rect3164" x="719.2" y="599.8" width="41" height="41"/>
		<rect id="rect3166" x="719.2" y="558.8" width="41" height="41"/>
		<rect id="rect3168" x="678.2" y="517.8" width="41" height="41"/>
		<rect id="rect3170" x="678.2" y="476.8" width="41" height="41"/>
		<rect id="rect3172" x="637.2" y="435.8" width="41" height="41"/>
		<rect id="rect3174" x="637.2" y="394.8" width="41" height="41"/>
		<rect id="rect3176" x="678.2" y="353.8" width="41" height="41"/>
		<rect id="rect3178" x="719.2" y="353.8" width="41" height="41"/>
		<rect id="rect3180" x="760.2" y="394.8" width="41" height="41"/>
		<rect id="rect3182" x="760.2" y="435.8" width="41" height="41"/>
		<rect id="rect3184" x="801.2" y="476.8" width="41" height="41"/>
		<rect id="rect3186" x="801.2" y="517.8" width="41" height="41"/>
		<rect id="rect3188" x="842.2" y="558.8" width="41" height="41"/>
		<rect id="rect3190" x="883.2" y="517.8" width="41" height="41"/>
		<rect id="rect3192" x="924.2" y="476.8" width="41" height="41"/>
		<rect id="rect3194" x="965.2" y="435.8" width="41" height="41"/>
		<rect id="rect3196" x="1006.2" y="435.8" width="41" height="41"/>
		<rect id="rect3198" x="1006.2" y="476.8" width="41" height="41"/>
		<rect id="rect3200" x="1006.2" y="517.8" width="41" height="41"/>
		<rect id="rect3202" x="1006.2" y="558.8" width="41" height="41"/>
		<rect id="rect3204" x="1006.2" y="599.8" width="41" height="41"/>
		<rect id="rect3206" x="1006.2" y="640.8" width="41" height="41"/>
		<rect id="rect3208" x="1006.2" y="681.8" width="41" height="41"/>
		<rect id="rect3210" x="1006.2" y="722.8" width="41" height="41"/>
		<rect id="rect3212" x="1006.2" y="763.8" width="41" height="41"/>
		<rect id="rect3214" x="1006.2" y="804.8" width="41" height="41"/>
		<rect id="rect3216" x="1006.2" y="845.8" width="41" height="41"/>
		<rect id="rect3218" x="1006.2" y="886.8" width="41" height="41"/>
		<rect id="rect3220" x="1006.2" y="927.8" width="41" height="41"/>
		<rect id="rect3222" x="1006.2" y="968.8" width="41" height="41"/>
		<rect id="rect3224" x="1006.2" y="1009.8" width="41" height="41"/>
		<rect id="rect3226" x="1006.2" y="1050.8" width="41" height="41"/>
		<rect id="rect3228" x="1006.2" y="1091.8" width="41" height="41"/>
	</g>
	<rect id="rect56" x="965.2" y="1009.8" class="st0" width="41" height="41"/>
	<rect id="rect108" x="924.2" y="968.8" class="st0" width="41" height="41"/>
	<rect id="rect110" x="965.2" y="968.8" class="st0" width="41" height="41"/>
	<rect id="rect112" x="965.2" y="927.8" class="st0" width="41" height="41"/>
	<rect id="rect114" x="924.2" y="927.8" class="st0" width="41" height="41"/>
	<rect id="rect116" x="883.2" y="927.8" class="st0" width="41" height="41"/>
	<rect id="rect118" x="965.2" y="886.8" class="st0" width="41" height="41"/>
	<rect id="rect120" x="924.2" y="886.8" class="st0" width="41" height="41"/>
	<rect id="rect122" x="883.2" y="886.8" class="st0" width="41" height="41"/>
	<rect id="rect124" x="842.2" y="886.8" class="st0" width="41" height="41"/>
	<rect id="rect126" x="965.2" y="476.8" class="st0" width="41" height="41"/>
	<rect id="rect128" x="965.2" y="517.8" class="st0" width="41" height="41"/>
	<rect id="rect130" x="924.2" y="517.8" class="st0" width="41" height="41"/>
	<rect id="rect132" x="760.2" y="517.8" class="st0" width="41" height="41"/>
	<rect id="rect134" x="719.2" y="476.8" class="st0" width="41" height="41"/>
	<rect id="rect136" x="760.2" y="476.8" class="st0" width="41" height="41"/>
	<rect id="rect138" x="719.2" y="517.8" class="st0" width="41" height="41"/>
	<rect id="rect140" x="719.2" y="435.8" class="st0" width="41" height="41"/>
	<rect id="rect142" x="678.2" y="435.8" class="st0" width="41" height="41"/>
	<rect id="rect144" x="719.2" y="394.8" class="st0" width="41" height="41"/>
	<rect id="rect146" x="678.2" y="394.8" class="st0" width="41" height="41"/>
	<rect id="rect148" x="801.2" y="558.8" class="st0" width="41" height="41"/>
	<rect id="rect150" x="760.2" y="558.8" class="st0" width="41" height="41"/>
	<rect id="rect152" x="883.2" y="558.8" class="st0" width="41" height="41"/>
	<rect id="rect154" x="924.2" y="558.8" class="st0" width="41" height="41"/>
	<rect id="rect156" x="965.2" y="558.8" class="st0" width="41" height="41"/>
	<rect id="rect158" x="965.2" y="599.8" class="st0" width="41" height="41"/>
	<rect id="rect160" x="924.2" y="599.8" class="st0" width="41" height="41"/>
	<rect id="rect162" x="883.2" y="599.8" class="st0" width="41" height="41"/>
	<rect id="rect164" x="842.2" y="599.8" class="st0" width="41" height="41"/>
	<rect id="rect166" x="801.2" y="599.8" class="st0" width="41" height="41"/>
	<rect id="rect168" x="760.2" y="599.8" class="st0" width="41" height="41"/>
	<rect id="rect170" x="596.2" y="640.8" class="st0" width="41" height="41"/>
	<rect id="rect172" x="637.2" y="640.8" class="st0" width="41" height="41"/>
	<rect id="rect174" x="678.2" y="640.8" class="st0" width="41" height="41"/>
	<rect id="rect176" x="719.2" y="640.8" class="st0" width="41" height="41"/>
	<rect id="rect178" x="760.2" y="640.8" class="st0" width="41" height="41"/>
	<rect id="rect180" x="801.2" y="640.8" class="st0" width="41" height="41"/>
	<rect id="rect182" x="842.2" y="640.8" class="st0" width="41" height="41"/>
	<rect id="rect184" x="883.2" y="640.8" class="st0" width="41" height="41"/>
	<rect id="rect186" x="924.2" y="640.8" class="st0" width="41" height="41"/>
	<rect id="rect188" x="965.2" y="640.8" class="st0" width="41" height="41"/>
	<rect id="rect190" x="965.2" y="681.8" class="st0" width="41" height="41"/>
	<rect id="rect192" x="924.2" y="681.8" class="st0" width="41" height="41"/>
	<rect id="rect194" x="965.2" y="722.8" class="st0" width="41" height="41"/>
	<rect id="rect196" x="965.2" y="763.8" class="st0" width="41" height="41"/>
	<rect id="rect198" x="924.2" y="722.8" class="st0" width="41" height="41"/>
	<rect id="rect200" x="883.2" y="681.8" class="st0" width="41" height="41"/>
	<rect id="rect202" x="842.2" y="681.8" class="st0" width="41" height="41"/>
	<rect id="rect204" x="883.2" y="722.8" class="st0" width="41" height="41"/>
	<rect id="rect206" x="924.2" y="763.8" class="st0" width="41" height="41"/>
	<rect id="rect208" x="965.2" y="804.8" class="st0" width="41" height="41"/>
	<rect id="rect210" x="965.2" y="845.8" class="st0" width="41" height="41"/>
	<rect id="rect212" x="924.2" y="804.8" class="st0" width="41" height="41"/>
	<rect id="rect214" x="883.2" y="763.8" class="st0" width="41" height="41"/>
	<rect id="rect216" x="842.2" y="722.8" class="st0" width="41" height="41"/>
	<rect id="rect218" x="801.2" y="681.8" class="st0" width="41" height="41"/>
	<rect id="rect220" x="924.2" y="845.8" class="st0" width="41" height="41"/>
	<rect id="rect222" x="883.2" y="804.8" class="st0" width="41" height="41"/>
	<rect id="rect224" x="842.2" y="763.8" class="st0" width="41" height="41"/>
	<rect id="rect226" x="801.2" y="722.8" class="st0" width="41" height="41"/>
	<rect id="rect228" x="760.2" y="681.8" class="st0" width="41" height="41"/>
	<rect id="rect230" x="719.2" y="681.8" class="st0" width="41" height="41"/>
	<rect id="rect232" x="678.2" y="681.8" class="st0" width="41" height="41"/>
	<rect id="rect234" x="637.2" y="681.8" class="st0" width="41" height="41"/>
	<rect id="rect236" x="678.2" y="722.8" class="st0" width="41" height="41"/>
	<rect id="rect238" x="719.2" y="763.8" class="st0" width="41" height="41"/>
	<rect id="rect240" x="760.2" y="804.8" class="st0" width="41" height="41"/>
	<rect id="rect242" x="801.2" y="845.8" class="st0" width="41" height="41"/>
	<rect id="rect244" x="842.2" y="845.8" class="st0" width="41" height="41"/>
	<rect id="rect246" x="801.2" y="804.8" class="st0" width="41" height="41"/>
	<rect id="rect248" x="760.2" y="763.8" class="st0" width="41" height="41"/>
	<rect id="rect250" x="719.2" y="722.8" class="st0" width="41" height="41"/>
	<rect id="rect252" x="760.2" y="722.8" class="st0" width="41" height="41"/>
	<rect id="rect254" x="801.2" y="763.8" class="st0" width="41" height="41"/>
	<rect id="rect256" x="842.2" y="804.8" class="st0" width="41" height="41"/>
	<rect id="rect258" x="883.2" y="845.8" class="st0" width="41" height="41"/>
</g>
</svg>
